<svg width="180" height="180" viewBox="0 0 180 180" fill="none" xmlns="http://www.w3.org/2000/svg">
<path d="M103.934 125.838L104.921 123.181C103.227 122.989 101.542 122.658 99.8614 122.194L101.357 126.094C102.216 126.04 103.075 125.956 103.934 125.838Z" fill="#B79F71"/>
<path d="M50.1454 3.48109C50.3878 4.06374 50.507 4.74021 50.507 5.51543C50.507 6.29065 50.1865 7.16462 49.5412 8.12748L21.0271 51.1004L59.3391 100.186L60.5679 87.363L29.2427 47.1799L34.4622 39.9412L38.3295 34.5739L57.3951 8.12748C60.7776 3.57984 65.1299 1.30849 70.4439 1.30849H70.9289V0H45.4314V1.30849H46.6397C48.3329 1.30849 49.5001 2.0294 50.1454 3.48109Z" fill="#B79F71"/>
<path d="M70.8744 100.572L70.0031 112.383C74.8322 117.009 79.7229 120.471 84.6711 122.767L79.8832 110.264C76.6939 107.376 73.6896 104.147 70.8744 100.572Z" fill="#B79F71"/>
<path d="M19.4519 97.4804C17.9231 95.688 17.1586 93.5401 17.1586 91.0218V10.4531C17.2367 7.93491 18.0217 5.80675 19.5136 4.06374C21.0055 2.32073 22.7932 1.45169 24.8893 1.45169H26.4633V0H0V1.45169H1.56996C3.66599 1.45169 5.45788 2.32073 6.94565 4.06374C8.43753 5.80675 9.22251 7.93491 9.3047 10.4531V91.0218C9.22251 93.5401 8.43753 95.688 6.94565 97.4804C5.45788 99.2728 3.66599 100.166 1.56996 100.166H0V101.618H26.4633V100.166H24.8893C22.7932 100.166 20.9808 99.2728 19.4519 97.4804Z" fill="#B79F71"/>
<path d="M178.549 177.971C170.736 177.971 164.029 174.485 158.431 167.517C152.834 160.55 149.188 150.29 147.499 136.741L136.259 50.7998H135.174L109.594 119.691L108.221 123.389L107.576 125.127L106.051 129.226L102.669 138.341L99.4058 129.853L97.9715 126.115L95.9576 120.876L94.1164 116.076L73.5507 62.5614C72.2602 59.3667 70.53 56.0288 68.3559 52.5428C67.0654 50.6072 65.6968 48.8395 64.246 47.2446C62.7952 45.6497 61.1061 44.0993 59.1704 42.5982C57.2387 41.1021 55.1838 39.9615 53.0097 39.1863C50.8356 38.416 48.9409 37.9519 47.3299 37.8087C45.7188 37.6655 44.231 37.5914 42.8584 37.5914C42.0405 37.5914 41.0747 37.7148 39.965 37.9617C39.2252 38.1197 38.4197 38.337 37.5443 38.6086V40.0603C37.869 40.0257 38.1937 40.001 38.5101 39.9763C39.1307 39.9319 39.7349 39.9121 40.3226 39.9121C50.2314 39.9121 58.7265 48.2865 65.816 65.0253L63.7939 86.0847L63.3295 90.9039L62.1007 103.707L61.6486 108.408L58.2045 144.29C57.8018 146.903 56.7743 149.006 55.1222 150.606C53.47 152.201 51.5589 153.001 49.3848 153.001H47.4491V154.452H70.8917V153.144H68.96C67.7517 153.144 66.6421 152.517 65.6352 151.258C64.6282 150.003 64.2049 148.552 64.3652 146.903L66.79 114.003L67.1229 109.48L68.0476 96.9526L68.4134 92.005L69.6834 74.7526L82.354 107.84L84.8528 114.368L88.6791 124.362L90.323 128.658L100.98 156.487H102.188C102.669 152.517 104.038 147.579 106.294 141.678L111.382 127.868L111.711 127.774V126.974L131.426 73.4491L138.799 138.049C140.25 151.016 144.355 161.568 151.124 169.695C154.424 173.66 158.111 176.371 162.18 177.822C166.244 179.274 169.668 180 172.45 180C175.228 180 177.744 179.807 180 179.422V177.971H178.549Z" fill="#B79F71"/>
</svg>
