<svg width="32" height="32" viewBox="0 0 32 32" fill="none" xmlns="http://www.w3.org/2000/svg">
<path d="M18.4772 22.3711L18.6526 21.8989C18.3515 21.8646 18.052 21.8058 17.7531 21.7233L18.0191 22.4168C18.1718 22.4071 18.3245 22.3922 18.4772 22.3711Z" fill="#B79F71"/>
<path d="M8.91473 0.61886C8.95784 0.722442 8.97903 0.842703 8.97903 0.98052C8.97903 1.11834 8.92204 1.27371 8.80733 1.44488L3.73814 9.08452L10.5492 17.8109L10.7676 15.5312L5.19869 8.38753L6.12661 7.10065L6.81414 6.14647L10.2036 1.44488C10.8049 0.636416 11.5786 0.232621 12.5234 0.232621H12.6096V0H8.07669V0.232621H8.29149C8.59252 0.232621 8.80002 0.360782 8.91473 0.61886Z" fill="#B79F71"/>
<path d="M12.5999 17.8794L12.445 19.9792C13.3035 20.8017 14.173 21.417 15.0526 21.8252L14.2015 19.6026C13.6345 19.0891 13.1004 18.515 12.5999 17.8794Z" fill="#B79F71"/>
<path d="M3.45812 17.3298C3.18632 17.0112 3.05042 16.6293 3.05042 16.1817V1.85834C3.06431 1.41065 3.20386 1.03231 3.46908 0.722442C3.7343 0.412573 4.05213 0.258078 4.42476 0.258078H4.70459V0H0V0.258078H0.279105C0.651731 0.258078 0.970291 0.412573 1.23478 0.722442C1.5 1.03231 1.63956 1.41065 1.65417 1.85834V16.1817C1.63956 16.6293 1.5 17.0112 1.23478 17.3298C0.970291 17.6485 0.651731 17.8074 0.279105 17.8074H0V18.0655H4.70459V17.8074H4.42476C4.05213 17.8074 3.72992 17.6485 3.45812 17.3298Z" fill="#B79F71"/>
<path d="M31.7421 31.6392C30.3531 31.6392 29.1607 31.0195 28.1656 29.7809C27.1705 28.5423 26.5224 26.7182 26.2221 24.3095L24.2238 9.03107H24.0309L19.4834 21.2784L19.2394 21.9358L19.1247 22.2448L18.8536 22.9734L18.2523 24.5939L17.6721 23.0849L17.4172 22.4204L17.0591 21.489L16.7318 20.6358L13.0757 11.122C12.8463 10.5541 12.5387 9.96068 12.1522 9.34094C11.9227 8.99684 11.6794 8.68258 11.4215 8.39905C11.1636 8.11551 10.8633 7.83988 10.5192 7.57302C10.1758 7.30704 9.81045 7.10427 9.42394 6.96645C9.03744 6.82951 8.70061 6.747 8.4142 6.72154C8.12779 6.69608 7.8633 6.68291 7.61926 6.68291C7.47387 6.68291 7.30217 6.70486 7.10489 6.74875C6.97338 6.77684 6.83017 6.81546 6.67455 6.86374V7.12182C6.73227 7.11568 6.78999 7.11129 6.84625 7.1069C6.95657 7.099 7.06398 7.09549 7.16846 7.09549C8.93003 7.09549 10.4403 8.58426 11.7006 11.5601L11.3411 15.3039L11.2586 16.1607L11.0401 18.4369L10.9598 19.2726L10.3475 25.6516C10.2759 26.116 10.0932 26.49 9.79949 26.7744C9.50578 27.0579 9.16603 27.2001 8.77952 27.2001H8.43539V27.4582H12.603V27.2256H12.2596C12.0448 27.2256 11.8475 27.1141 11.6685 26.8902C11.4895 26.6673 11.4142 26.4092 11.4427 26.116L11.8738 20.2671L11.933 19.463L12.0974 17.236L12.1624 16.3564L12.3882 13.2894L14.6407 19.1716L15.0849 20.3321L15.7652 22.1088L16.0574 22.8725L17.952 27.8198H18.1668C18.2523 27.1141 18.4956 26.2363 18.8967 25.1873L19.8012 22.732L19.8597 22.7153V22.5731L23.3646 13.0576L24.6753 24.5421C24.9332 26.8472 25.6632 28.7231 26.8665 30.168C27.4532 30.8729 28.1086 31.3548 28.8319 31.6129C29.5545 31.871 30.1632 32 30.6578 32C31.1517 32 31.5989 31.9658 32 31.8973V31.6392H31.7421Z" fill="#B79F71"/>
</svg>
