<svg width="16" height="16" viewBox="0 0 16 16" fill="none" xmlns="http://www.w3.org/2000/svg">
<path d="M9.2386 11.1856L9.32628 10.9494C9.17577 10.9323 9.02599 10.9029 8.87657 10.8616L9.00955 11.2084C9.0859 11.2036 9.16225 11.1961 9.2386 11.1856Z" fill="#B79F71"/>
<path d="M4.45737 0.30943C4.47892 0.361221 4.48951 0.421352 4.48951 0.49026C4.48951 0.559169 4.46102 0.636855 4.40366 0.722442L1.86907 4.54226L5.27459 8.90544L5.38382 7.7656L2.59935 4.19377L3.0633 3.55033L3.40707 3.07323L5.10179 0.722442C5.40245 0.318208 5.78932 0.116311 6.26168 0.116311H6.30479V0H4.03834V0.116311H4.14575C4.29626 0.116311 4.40001 0.180391 4.45737 0.30943Z" fill="#B79F71"/>
<path d="M6.29994 8.93971L6.2225 9.98958C6.65175 10.4008 7.08648 10.7085 7.52632 10.9126L7.10073 9.80129C6.81724 9.54453 6.55019 9.25748 6.29994 8.93971Z" fill="#B79F71"/>
<path d="M1.72906 8.66492C1.59316 8.5056 1.52521 8.31467 1.52521 8.09083V0.929168C1.53215 0.705325 1.60193 0.516156 1.73454 0.361221C1.86715 0.206287 2.02607 0.129039 2.21238 0.129039H2.3523V0H0V0.129039H0.139552C0.325866 0.129039 0.485145 0.206287 0.617391 0.361221C0.750002 0.516156 0.819778 0.705325 0.827085 0.929168V8.09083C0.819778 8.31467 0.750002 8.5056 0.617391 8.66492C0.485145 8.82425 0.325866 8.90369 0.139552 8.90369H0V9.03273H2.3523V8.90369H2.21238C2.02607 8.90369 1.86496 8.82425 1.72906 8.66492Z" fill="#B79F71"/>
<path d="M15.871 15.8196C15.1766 15.8196 14.5804 15.5097 14.0828 14.8904C13.5852 14.2711 13.2612 13.3591 13.111 12.1547L12.1119 4.51554H12.0155L9.7417 10.6392L9.61968 10.9679L9.56233 11.1224L9.42679 11.4867L9.12614 12.2969L8.83607 11.5425L8.70858 11.2102L8.52957 10.7445L8.3659 10.3179L6.53784 5.56102C6.42313 5.27704 6.26933 4.98034 6.07608 4.67047C5.96137 4.49842 5.83972 4.34129 5.71076 4.19952C5.5818 4.05776 5.43165 3.91994 5.25959 3.78651C5.08789 3.65352 4.90523 3.55213 4.71197 3.48322C4.51872 3.41476 4.35031 3.3735 4.2071 3.36077C4.06389 3.34804 3.93165 3.34146 3.80963 3.34146C3.73693 3.34146 3.65108 3.35243 3.55245 3.37438C3.48669 3.38842 3.41509 3.40773 3.33727 3.43187V3.56091C3.36613 3.55784 3.39499 3.55564 3.42312 3.55345C3.47829 3.5495 3.53199 3.54774 3.58423 3.54774C4.46502 3.54774 5.22013 4.29213 5.85031 5.78003L5.67057 7.65197L5.62929 8.08035L5.52006 9.21844L5.47988 9.63628L5.17374 12.8258C5.13794 13.058 5.04661 13.245 4.89975 13.3872C4.75289 13.529 4.58301 13.6001 4.38976 13.6001H4.21769V13.7291H6.30148V13.6128H6.12978C6.02238 13.6128 5.92374 13.557 5.83424 13.4451C5.74473 13.3336 5.7071 13.2046 5.72135 13.058L5.93689 10.1336L5.96648 9.73152L6.04868 8.61801L6.08119 8.17822L6.19408 6.64468L7.32036 9.5858L7.54247 10.166L7.88259 11.0544L8.02871 11.4362L8.97599 13.9099H9.08339C9.12614 13.557 9.24779 13.1181 9.44835 12.5936L9.90061 11.366L9.92984 11.3577V11.2866L11.6823 6.52881L12.3377 12.271C12.4666 13.4236 12.8316 14.3616 13.4333 15.084C13.7266 15.4364 14.0543 15.6774 14.416 15.8064C14.7773 15.9355 15.0816 16 15.3289 16C15.5759 16 15.7994 15.9829 16 15.9487V15.8196H15.871Z" fill="#B79F71"/>
</svg>
