<svg width="10" height="10" viewBox="0 0 10 10" fill="none" xmlns="http://www.w3.org/2000/svg">
<path fill-rule="evenodd" clip-rule="evenodd" d="M5 0C2.23858 0 0 2.23858 0 5C0 7.76142 2.23858 10 5 10C7.76142 10 10 7.76142 10 5C10 2.23858 7.76142 0 5 0ZM4.64645 2.64645C4.84171 2.45118 5.15829 2.45118 5.35355 2.64645L7.35355 4.64645C7.44732 4.74021 7.5 4.86739 7.5 5C7.5 5.13261 7.44732 5.25979 7.35355 5.35355L5.35355 7.35355C5.15829 7.54882 4.84171 7.54882 4.64645 7.35355C4.45118 7.15829 4.45118 6.84171 4.64645 6.64645L5.79289 5.5H3C2.72386 5.5 2.5 5.27614 2.5 5C2.5 4.72386 2.72386 4.5 3 4.5H5.79289L4.64645 3.35355C4.45118 3.15829 4.45118 2.84171 4.64645 2.64645Z" fill="white"/>
</svg>
