<svg width="20" height="12" viewBox="0 0 20 12" fill="none" xmlns="http://www.w3.org/2000/svg">
<path d="M10.7804 11.5558L19.6805 2.65555C19.8865 2.4497 20 2.1749 20 1.8819C20 1.58889 19.8865 1.3141 19.6805 1.10824L19.0252 0.452802C18.5982 0.0263018 17.9042 0.0263018 17.4779 0.452802L10.0041 7.92656L2.52209 0.44451C2.31608 0.238658 2.04145 0.125 1.7486 0.125C1.45543 0.125 1.1808 0.238658 0.974625 0.44451L0.319508 1.09995C0.113495 1.30597 0 1.5806 0 1.8736C0 2.16661 0.113495 2.4414 0.319508 2.64726L9.22773 11.5558C9.43439 11.7621 9.71033 11.8755 10.0037 11.8748C10.2981 11.8755 10.5739 11.7621 10.7804 11.5558Z" fill="white"/>
</svg>
