<svg width="64" height="52" viewBox="0 0 64 52" fill="none" xmlns="http://www.w3.org/2000/svg">
<path d="M0.333008 51.3337V19.667C0.333008 17.9253 0.953675 16.4338 2.19501 15.1925C3.43423 13.9533 4.92467 13.3337 6.66634 13.3337H16.1663V7.00033C16.1663 5.25866 16.787 3.76821 18.0283 2.52899C19.2676 1.28766 20.758 0.666992 22.4997 0.666992H41.4997C43.2413 0.666992 44.7328 1.28766 45.9742 2.52899C47.2134 3.76821 47.833 5.25866 47.833 7.00033V13.3337H57.333C59.0747 13.3337 60.5662 13.9533 61.8075 15.1925C63.0467 16.4338 63.6663 17.9253 63.6663 19.667V51.3337H0.333008ZM6.66634 45.0003H57.333V35.5003H50.9997V38.667H44.6663V35.5003H19.333V38.667H12.9997V35.5003H6.66634V45.0003ZM6.66634 19.667V29.167H12.9997V26.0003H19.333V29.167H44.6663V26.0003H50.9997V29.167H57.333V19.667H6.66634ZM22.4997 13.3337H41.4997V7.00033H22.4997V13.3337Z" fill="url(#paint0_linear_544_47)"/>
<defs>
<linearGradient id="paint0_linear_544_47" x1="31.9997" y1="0.666992" x2="31.9997" y2="51.3337" gradientUnits="userSpaceOnUse">
<stop stop-color="#B79F71"/>
<stop offset="1" stop-color="#837252"/>
</linearGradient>
</defs>
</svg>
