<svg width="71" height="80" viewBox="0 0 71 80" fill="none" xmlns="http://www.w3.org/2000/svg">
<path d="M45.625 0.462891L70.9375 25.7754V79.9995H65.875V27.9111L50.6875 12.7236V29.3745H55.75V79.9995H40.5625V64.812H35.5V79.9995H20.3125V29.3745H35.5V24.312H5.125V79.9995H0.0625V19.2495H40.5625V29.3745H45.625V0.462891ZM50.6875 74.937V34.437H25.375V74.937H30.4375V59.7495H45.625V74.937H50.6875ZM10.1875 34.437V29.3745H15.25V34.437H10.1875ZM10.1875 44.562V39.4995H15.25V44.562H10.1875ZM10.1875 54.687V49.6245H15.25V54.687H10.1875ZM10.1875 64.812V59.7495H15.25V64.812H10.1875ZM10.1875 74.937V69.8745H15.25V74.937H10.1875ZM45.625 39.4995V44.562H40.5625V39.4995H45.625ZM45.625 49.6245V54.687H40.5625V49.6245H45.625ZM35.5 39.4995V44.562H30.4375V39.4995H35.5ZM35.5 49.6245V54.687H30.4375V49.6245H35.5Z" fill="url(#paint0_linear_540_462)"/>
<defs>
<linearGradient id="paint0_linear_540_462" x1="35.5" y1="0.462891" x2="35.5" y2="79.9995" gradientUnits="userSpaceOnUse">
<stop stop-color="#B79F71"/>
<stop offset="1" stop-color="#837252"/>
</linearGradient>
</defs>
</svg>
