<svg width="104" height="64" viewBox="0 0 104 64" fill="none" xmlns="http://www.w3.org/2000/svg">
<path d="M52 0.833984C56.0225 0.833984 59.8802 2.4319 62.7245 5.2762C65.5688 8.1205 67.1667 11.9782 67.1667 16.0007C67.1667 20.0231 65.5688 23.8808 62.7245 26.7251C59.8802 29.5694 56.0225 31.1673 52 31.1673C47.9776 31.1673 44.1199 29.5694 41.2756 26.7251C38.4312 23.8808 36.8333 20.0231 36.8333 16.0007C36.8333 11.9782 38.4312 8.1205 41.2756 5.2762C44.1199 2.4319 47.9776 0.833984 52 0.833984ZM21.6667 11.6673C24.0933 11.6673 26.3467 12.3173 28.2967 13.4873C27.6467 19.684 29.4667 25.8373 33.1933 30.6473C31.0267 34.8073 26.6933 37.6673 21.6667 37.6673C18.2189 37.6673 14.9123 36.2977 12.4743 33.8597C10.0363 31.4217 8.66667 28.1151 8.66667 24.6673C8.66667 21.2195 10.0363 17.9129 12.4743 15.4749C14.9123 13.037 18.2189 11.6673 21.6667 11.6673ZM82.3333 11.6673C85.7812 11.6673 89.0878 13.037 91.5257 15.4749C93.9637 17.9129 95.3333 21.2195 95.3333 24.6673C95.3333 28.1151 93.9637 31.4217 91.5257 33.8597C89.0878 36.2977 85.7812 37.6673 82.3333 37.6673C77.3067 37.6673 72.9733 34.8073 70.8067 30.6473C74.5848 25.7698 76.3385 19.6242 75.7033 13.4873C77.6533 12.3173 79.9067 11.6673 82.3333 11.6673ZM23.8333 56.084C23.8333 47.114 36.4433 39.834 52 39.834C67.5567 39.834 80.1667 47.114 80.1667 56.084V63.6673H23.8333V56.084ZM0 63.6673V57.1673C0 51.144 8.19 46.074 19.2833 44.6007C16.7267 47.5473 15.1667 51.6206 15.1667 56.084V63.6673H0ZM104 63.6673H88.8333V56.084C88.8333 51.6206 87.2733 47.5473 84.7167 44.6007C95.81 46.074 104 51.144 104 57.1673V63.6673Z" fill="white"/>
</svg>
