<svg xmlns="http://www.w3.org/2000/svg" viewBox="0 0 32 32"><path d="M31,19V13H26.59a10.82,10.82,0,0,0-1-2.36l3.12-3.13L24.49,3.28,21.36,6.4a10.77,10.77,0,0,0-2.36-1V1H13V5.41a10.77,10.77,0,0,0-2.36,1L7.51,3.28,3.28,7.51,6.4,10.64a10.82,10.82,0,0,0-1,2.36H1v6H5.41a10.82,10.82,0,0,0,1,2.36L3.28,24.49l4.23,4.23,3.13-3.12a10.77,10.77,0,0,0,2.36,1V31h6V26.59a10.77,10.77,0,0,0,2.36-1l3.13,3.12,4.23-4.23L25.6,21.36a10.82,10.82,0,0,0,1-2.36ZM20,16a4,4,0,1,1-4-4A4,4,0,0,1,20,16Z" data-name="Layer 10"/></svg>