<svg width="98" height="39" viewBox="0 0 98 39" fill="none" xmlns="http://www.w3.org/2000/svg">
<path d="M0.724609 4.76431C4.91426 2.08615 10.2315 0.74707 16.6758 0.74707C25.8522 0.74707 40.4671 4.48673 60.5206 11.9655C74.4332 16.1793 83.489 18.3339 87.6878 18.4298C93.9867 18.5735 96.9465 16.2574 96.9465 12.7959C96.9465 9.33385 95.0786 5.6781 87.6878 5.6781C82.7608 5.6781 71.5878 8.51374 54.1689 14.1856C33.9735 21.9126 21.051 26.2212 15.4022 27.1109C6.92863 28.4453 2.91082 25.381 2.91082 22.2586C2.91082 19.1356 4.39357 16.0781 15.4022 15.616C22.7413 15.308 31.235 16.9913 40.8815 20.6649C57.9062 28.504 69.6097 32.4241 75.9924 32.4241C85.566 32.4241 84.2355 23.7126 75.9924 23.4068C64.4281 22.9781 50.4137 28.1252 33.9499 38.8482" stroke="white" stroke-width="0.275862"/>
</svg>
