<svg width="24" height="24" viewBox="0 0 24 24" fill="none" xmlns="http://www.w3.org/2000/svg">
<path d="M0 0V24H4.8V15.4688H24V1.40625H4.8V0H0ZM17.6 9.84375H14.4V7.03125H17.6V9.84375ZM19.2 7.03125H22.4V9.84375H19.2V7.03125ZM14.4 11.25H17.6V14.0625H14.4V11.25ZM12.8 14.0625H9.6V11.25H12.8V14.0625ZM14.4 5.625V2.8125H17.6V5.625H14.4ZM12.8 5.625H9.6V2.8125H12.8V5.625ZM12.8 7.03125V9.84375H9.6V7.03125H12.8ZM8 9.84375H4.8V7.03125H8V9.84375ZM3.2 22.5938H1.6V1.40625H3.2V22.5938ZM4.8 11.25H8V14.0625H4.8V11.25ZM19.2 14.0625V11.25H22.4V14.0625H19.2ZM22.4 5.625H19.2V2.8125H22.4V5.625ZM8 2.8125V5.625H4.8V2.8125H8Z" fill="white"/>
</svg>
