<svg width="22" height="28" viewBox="0 0 22 28" fill="none" xmlns="http://www.w3.org/2000/svg">
<path d="M18.2905 15.645C17.3735 17.5035 16.131 19.355 14.8605 21.0175C13.6553 22.5848 12.3666 24.0862 11 25.515C9.6334 24.0862 8.3447 22.5849 7.1395 21.0175C5.869 19.355 4.6265 17.5035 3.7095 15.645C2.782 13.7672 2.25 12.0085 2.25 10.5C2.25 8.17936 3.17187 5.95376 4.81282 4.31282C6.45376 2.67187 8.67936 1.75 11 1.75C13.3206 1.75 15.5462 2.67187 17.1872 4.31282C18.8281 5.95376 19.75 8.17936 19.75 10.5C19.75 12.0085 19.2163 13.7672 18.2905 15.645ZM11 28C11 28 21.5 18.0495 21.5 10.5C21.5 7.71523 20.3938 5.04451 18.4246 3.07538C16.4555 1.10625 13.7848 0 11 0C8.21523 0 5.54451 1.10625 3.57538 3.07538C1.60625 5.04451 0.5 7.71523 0.5 10.5C0.5 18.0495 11 28 11 28Z" fill="url(#paint0_linear_545_74)"/>
<path d="M11 14C10.0717 14 9.1815 13.6313 8.52513 12.9749C7.86875 12.3185 7.5 11.4283 7.5 10.5C7.5 9.57174 7.86875 8.6815 8.52513 8.02513C9.1815 7.36875 10.0717 7 11 7C11.9283 7 12.8185 7.36875 13.4749 8.02513C14.1313 8.6815 14.5 9.57174 14.5 10.5C14.5 11.4283 14.1313 12.3185 13.4749 12.9749C12.8185 13.6313 11.9283 14 11 14ZM11 15.75C12.3924 15.75 13.7277 15.1969 14.7123 14.2123C15.6969 13.2277 16.25 11.8924 16.25 10.5C16.25 9.10761 15.6969 7.77226 14.7123 6.78769C13.7277 5.80312 12.3924 5.25 11 5.25C9.60761 5.25 8.27226 5.80312 7.28769 6.78769C6.30312 7.77226 5.75 9.10761 5.75 10.5C5.75 11.8924 6.30312 13.2277 7.28769 14.2123C8.27226 15.1969 9.60761 15.75 11 15.75Z" fill="url(#paint1_linear_545_74)"/>
<defs>
<linearGradient id="paint0_linear_545_74" x1="11" y1="0" x2="11" y2="28" gradientUnits="userSpaceOnUse">
<stop stop-color="#B79F71"/>
<stop offset="1" stop-color="#837252"/>
</linearGradient>
<linearGradient id="paint1_linear_545_74" x1="11" y1="5.25" x2="11" y2="15.75" gradientUnits="userSpaceOnUse">
<stop stop-color="#B79F71"/>
<stop offset="1" stop-color="#837252"/>
</linearGradient>
</defs>
</svg>
