<svg xmlns="http://www.w3.org/2000/svg" enable-background="new 0 0 100 100" viewBox="0 0 100 100"><path d="M32,42H22c-1.105,0-2-0.895-2-2s0.895-2,2-2h10c3.309,0,6-2.691,6-6V22c0-1.105,0.895-2,2-2s2,0.895,2,2v10
	C42,37.514,37.514,42,32,42z M80,40c0-1.105-0.895-2-2-2H68c-3.309,0-6-2.691-6-6V22c0-1.105-0.895-2-2-2s-2,0.895-2,2v10
	c0,5.514,4.486,10,10,10h10C79.105,42,80,41.105,80,40z M42,78V68c0-5.514-4.486-10-10-10H22c-1.105,0-2,0.895-2,2s0.895,2,2,2h10
	c3.309,0,6,2.691,6,6v10c0,1.105,0.895,2,2,2S42,79.105,42,78z M62,78V68c0-3.309,2.691-6,6-6h10c1.105,0,2-0.895,2-2s-0.895-2-2-2
	H68c-5.514,0-10,4.486-10,10v10c0,1.105,0.895,2,2,2S62,79.105,62,78z"/></svg>