<svg width="32" height="32" viewBox="0 0 32 32" fill="none" xmlns="http://www.w3.org/2000/svg">
<g clip-path="url(#clip0_1_5)">
<path d="M28 32H18.6667V23.3333H13.3333V32H4V18C4 17.8232 4.07024 17.6536 4.19526 17.5286C4.32029 17.4036 4.48986 17.3333 4.66667 17.3333C4.84348 17.3333 5.01305 17.4036 5.13807 17.5286C5.2631 17.6536 5.33333 17.8232 5.33333 18V30.6667H12V22H20V30.6667H26.6667V18.6667C26.6667 18.4899 26.7369 18.3203 26.8619 18.1953C26.987 18.0702 27.1565 18 27.3333 18C27.5101 18 27.6797 18.0702 27.8047 18.1953C27.9298 18.3203 28 18.4899 28 18.6667V32Z" fill="white"/>
<path d="M31.3331 18C31.1615 18.0002 30.9964 17.9341 30.8725 17.8153L15.9998 3.58934L1.12713 17.8153C0.999389 17.9376 0.828306 18.0041 0.651522 18.0002C0.474737 17.9964 0.306733 17.9224 0.184468 17.7947C0.0622036 17.6669 -0.00430666 17.4958 -0.00043091 17.3191C0.00344484 17.1423 0.0773891 16.9743 0.205135 16.852L15.9998 1.744L31.7938 16.8513C31.8901 16.9433 31.9566 17.062 31.9848 17.1922C32.013 17.3223 32.0016 17.4579 31.952 17.5815C31.9024 17.7051 31.817 17.811 31.7067 17.8856C31.5964 17.9602 31.4663 18 31.3331 18V18ZM25.9998 10C25.823 10 25.6534 9.92977 25.5284 9.80474C25.4034 9.67972 25.3331 9.51015 25.3331 9.33334V5.33334H21.3331C21.1563 5.33334 20.9868 5.2631 20.8617 5.13807C20.7367 5.01305 20.6665 4.84348 20.6665 4.66667C20.6665 4.48986 20.7367 4.32029 20.8617 4.19527C20.9868 4.07024 21.1563 4 21.3331 4H26.6665V9.33334C26.6665 9.51015 26.5962 9.67972 26.4712 9.80474C26.3462 9.92977 26.1766 10 25.9998 10Z" fill="white"/>
</g>
<defs>
<clipPath id="clip0_1_5">
<rect width="32" height="32" fill="white"/>
</clipPath>
</defs>
</svg>
