<svg width="87" height="80" viewBox="0 0 87 80" fill="none" xmlns="http://www.w3.org/2000/svg">
<path d="M49.9404 55.5711L50.4144 54.398C49.6007 54.313 48.7911 54.1669 47.9834 53.9619L48.7022 55.6845C49.1149 55.6605 49.5277 55.6235 49.9404 55.5711Z" fill="url(#paint0_linear_409_355)"/>
<path d="M24.0949 1.53727C24.2114 1.79457 24.2686 2.0933 24.2686 2.43565C24.2686 2.77799 24.1146 3.16394 23.8046 3.58914L10.1035 22.5663L28.5125 44.2429L29.1029 38.58L14.0511 20.8349L16.5591 17.6383L18.4174 15.268L27.5784 3.58914C29.2036 1.58088 31.2949 0.577839 33.8483 0.577839H34.0813V0H21.8298V0.577839H22.4104C23.224 0.577839 23.7848 0.896196 24.0949 1.53727Z" fill="url(#paint1_linear_409_355)"/>
<path d="M34.0554 44.4131L33.6367 49.6289C35.9571 51.6721 38.3071 53.2006 40.6847 54.2145L38.3841 48.6935C36.8517 47.4178 35.4081 45.9918 34.0554 44.4131Z" fill="url(#paint2_linear_409_355)"/>
<path d="M9.34665 43.0479C8.61203 42.2564 8.24472 41.3079 8.24472 40.1958V4.61617C8.28224 3.5041 8.65943 2.5643 9.37627 1.79457C10.0931 1.02485 10.9522 0.641074 11.9593 0.641074H12.7156V0H0V0.641074H0.754367C1.76151 0.641074 2.62251 1.02485 3.33738 1.79457C4.05423 2.5643 4.43141 3.5041 4.47091 4.61617V40.1958C4.43141 41.3079 4.05423 42.2564 3.33738 43.0479C2.62251 43.8395 1.76151 44.2341 0.754367 44.2341H0V44.8752H12.7156V44.2341H11.9593C10.9522 44.2341 10.0813 43.8395 9.34665 43.0479Z" fill="url(#paint3_linear_409_355)"/>
<path d="M85.7929 78.5929C82.0388 78.5929 78.816 77.0535 76.1263 73.9768C73.4367 70.9 71.685 66.3689 70.8734 60.3855L65.4724 22.4335H64.951L52.66 52.8562L52.0004 54.4894L51.6904 55.2569L50.9577 57.0668L49.3325 61.092L47.7645 57.3437L47.0753 55.6931L46.1076 53.3795L45.2229 51.26L35.3411 27.6275C34.721 26.2167 33.8897 24.7427 32.845 23.2032C32.2249 22.3485 31.5673 21.5678 30.8702 20.8635C30.1731 20.1592 29.3615 19.4745 28.4314 18.8116C27.5032 18.1509 26.5158 17.6472 25.4711 17.3049C24.4265 16.9647 23.5161 16.7598 22.742 16.6965C21.9679 16.6333 21.253 16.6006 20.5934 16.6006C20.2005 16.6006 19.7364 16.6551 19.2032 16.7641C18.8477 16.8339 18.4607 16.9298 18.04 17.0498V17.6908C18.196 17.6756 18.3521 17.6647 18.5041 17.6538C18.8023 17.6342 19.0926 17.6254 19.375 17.6254C24.1362 17.6254 28.2181 21.3236 31.6246 28.7156L30.653 38.0155L30.4298 40.1437L29.8394 45.7978L29.6221 47.8737L27.9673 63.7196C27.7737 64.8731 27.2801 65.802 26.4862 66.5085C25.6923 67.2128 24.7741 67.566 23.7294 67.566H22.7993V68.2071H34.0634V67.6292H33.1353C32.5547 67.6292 32.0215 67.3523 31.5377 66.7963C31.0539 66.2424 30.8505 65.6014 30.9275 64.8731L32.0926 50.3442L32.2526 48.3469L32.6969 42.8149L32.8726 40.63L33.4828 33.0112L39.5711 47.6229L40.7718 50.5056L42.6103 54.919L43.4002 56.816L48.5208 69.1055H49.1014C49.3325 67.3523 49.9901 65.1718 51.0742 62.5661L53.519 56.4671L53.677 56.4257V56.0725L63.15 32.4356L66.6928 60.9634C67.3899 66.6894 69.3627 71.3492 72.6152 74.9384C74.2009 76.6893 75.9723 77.8864 77.9273 78.5275C79.8804 79.1686 81.5254 79.4891 82.8623 79.4891C84.1973 79.4891 85.4058 79.4041 86.49 79.234V78.5929H85.7929Z" fill="url(#paint4_linear_409_355)"/>
<defs>
<linearGradient id="paint0_linear_409_355" x1="49.1989" y1="53.9619" x2="49.1633" y2="56.3786" gradientUnits="userSpaceOnUse">
<stop stop-color="#D3B375"/>
<stop offset="1" stop-color="#2F2513" stop-opacity="0.5"/>
</linearGradient>
<linearGradient id="paint1_linear_409_355" x1="22.0924" y1="3.83845e-08" x2="19.7187" y2="61.9905" gradientUnits="userSpaceOnUse">
<stop stop-color="#D3B375"/>
<stop offset="1" stop-color="#2F2513" stop-opacity="0.5"/>
</linearGradient>
<linearGradient id="paint2_linear_409_355" x1="37.1607" y1="44.4131" x2="36.7641" y2="58.155" gradientUnits="userSpaceOnUse">
<stop stop-color="#D3B375"/>
<stop offset="1" stop-color="#2F2513" stop-opacity="0.5"/>
</linearGradient>
<linearGradient id="paint3_linear_409_355" x1="6.35782" y1="3.89331e-08" x2="1.77066" y2="62.6327" gradientUnits="userSpaceOnUse">
<stop stop-color="#D3B375"/>
<stop offset="1" stop-color="#2F2513" stop-opacity="0.5"/>
</linearGradient>
<linearGradient id="paint4_linear_409_355" x1="52.265" y1="16.6006" x2="50.5831" y2="104.813" gradientUnits="userSpaceOnUse">
<stop stop-color="#D3B375"/>
<stop offset="1" stop-color="#2F2513" stop-opacity="0.5"/>
</linearGradient>
</defs>
</svg>
