<svg width="16" height="17" viewBox="0 0 16 17" fill="none" xmlns="http://www.w3.org/2000/svg">
<path d="M7.99785 4.39515C5.72636 4.39515 3.89315 6.22836 3.89315 8.49985C3.89315 10.7713 5.72636 12.6045 7.99785 12.6045C10.2693 12.6045 12.1025 10.7713 12.1025 8.49985C12.1025 6.22836 10.2693 4.39515 7.99785 4.39515ZM7.99785 11.1676C6.52888 11.1676 5.3301 9.96882 5.3301 8.49985C5.3301 7.03089 6.52888 5.8321 7.99785 5.8321C9.46681 5.8321 10.6656 7.03089 10.6656 8.49985C10.6656 9.96882 9.46681 11.1676 7.99785 11.1676ZM12.2707 3.27042C11.7403 3.27042 11.312 3.6987 11.312 4.22905C11.312 4.75939 11.7403 5.18767 12.2707 5.18767C12.801 5.18767 13.2293 4.76139 13.2293 4.22905C13.2294 4.10311 13.2048 3.97838 13.1566 3.86201C13.1085 3.74563 13.0379 3.63989 12.9489 3.55084C12.8598 3.46179 12.7541 3.39118 12.6377 3.34306C12.5213 3.29495 12.3966 3.27026 12.2707 3.27042ZM15.9991 8.49985C15.9991 7.39513 16.0091 6.30041 15.9471 5.19768C15.885 3.91684 15.5928 2.78009 14.6562 1.84348C13.7176 0.904861 12.5829 0.61467 11.302 0.552629C10.1973 0.490589 9.10258 0.500595 7.99985 0.500595C6.89512 0.500595 5.80041 0.490589 4.69768 0.552629C3.41684 0.61467 2.28009 0.906862 1.34348 1.84348C0.404861 2.78209 0.11467 3.91684 0.0526294 5.19768C-0.00941132 6.30241 0.000595279 7.39713 0.000595279 8.49985C0.000595279 9.60258 -0.00941132 10.6993 0.0526294 11.802C0.11467 13.0829 0.406862 14.2196 1.34348 15.1562C2.28209 16.0948 3.41684 16.385 4.69768 16.4471C5.80241 16.5091 6.89713 16.4991 7.99985 16.4991C9.10458 16.4991 10.1993 16.5091 11.302 16.4471C12.5829 16.385 13.7196 16.0928 14.6562 15.1562C15.5948 14.2176 15.885 13.0829 15.9471 11.802C16.0111 10.6993 15.9991 9.60458 15.9991 8.49985ZM14.238 13.219C14.0919 13.5832 13.9157 13.8554 13.6336 14.1356C13.3514 14.4177 13.0812 14.5939 12.717 14.74C11.6643 15.1582 9.16462 15.0642 7.99785 15.0642C6.83108 15.0642 4.32944 15.1582 3.27675 14.742C2.91251 14.5959 2.64033 14.4197 2.36015 14.1376C2.07796 13.8554 1.90184 13.5852 1.75575 13.221C1.33948 12.1663 1.43354 9.66662 1.43354 8.49985C1.43354 7.33308 1.33948 4.83144 1.75575 3.77875C1.90184 3.41451 2.07796 3.14233 2.36015 2.86215C2.64233 2.58196 2.91251 2.40385 3.27675 2.25775C4.32944 1.84148 6.83108 1.93554 7.99785 1.93554C9.16462 1.93554 11.6663 1.84148 12.719 2.25775C13.0832 2.40385 13.3554 2.57996 13.6356 2.86215C13.9177 3.14433 14.0939 3.41451 14.24 3.77875C14.6562 4.83144 14.5622 7.33308 14.5622 8.49985C14.5622 9.66662 14.6562 12.1663 14.238 13.219Z" fill="white"/>
</svg>
