<svg xmlns="http://www.w3.org/2000/svg" viewBox="0 0 64 64"><g fill="#222" data-name="Question"><path d="M32 39.49a2 2 0 0 1-2-2 6.69 6.69 0 0 1 1.59-4.41c.15-.16.36-.35.61-.58 1.24-1.11 3.8-3.43 3.8-6a3.76 3.76 0 0 0-4-4 3.76 3.76 0 0 0-4 4 2 2 0 0 1-4 0 7.75 7.75 0 0 1 8-8 7.75 7.75 0 0 1 8 8c0 4.35-3.45 7.48-5.11 9l-.48.43a3.19 3.19 0 0 0-.41 1.6 2 2 0 0 1-2 1.96zm0 6.01a2 2 0 0 1-1.41-.58 2 2 0 0 1 0-2.84 2.07 2.07 0 0 1 2.82 0 1.79 1.79 0 0 1 .25.31 2.27 2.27 0 0 1 .19.34 2.38 2.38 0 0 1 .11.38 1.92 1.92 0 0 1 0 .78 2.26 2.26 0 0 1-.11.37 2 2 0 0 1-.19.35 1.79 1.79 0 0 1-.25.31 2 2 0 0 1-1.41.58z"/><path d="M38.42 56.42H25.58a18 18 0 0 1-18-18V25.58a18 18 0 0 1 18-18h12.84a18 18 0 0 1 18 18v12.84a18 18 0 0 1-18 18ZM25.58 11.58a14 14 0 0 0-14 14v12.84a14 14 0 0 0 14 14h12.84a14 14 0 0 0 14-14V25.58a14 14 0 0 0-14-14Z"/></g></svg>