<svg width="34" height="27" viewBox="0 0 34 27" fill="none" xmlns="http://www.w3.org/2000/svg">
<path d="M27.6177 13.797C31.4306 13.797 34 16.4774 34 20.4488C34 24.0226 31.0469 27 27.047 27C22.6659 27 19.4286 23.4262 19.4286 17.9673C19.4286 5.55955 28.3803 0.596455 34 0V5.45891C30.1896 6.15355 25.9056 10.0244 25.7137 14.2953C25.9056 14.1971 26.6657 13.797 27.6177 13.797ZM8.19157 13.797C11.9996 13.797 14.5714 16.4774 14.5714 20.4488C14.5714 24.0226 11.6183 27 7.61843 27C3.23729 27 0 23.4262 0 17.9673C0 5.55955 8.95171 0.596455 14.5714 0V5.45891C10.761 6.15355 6.477 10.0244 6.28514 14.2953C6.477 14.1971 7.23714 13.797 8.19157 13.797Z" fill="url(#paint0_linear_540_511)"/>
<defs>
<linearGradient id="paint0_linear_540_511" x1="17" y1="0" x2="17" y2="27" gradientUnits="userSpaceOnUse">
<stop stop-color="#B79F71"/>
<stop offset="1" stop-color="#837252"/>
</linearGradient>
</defs>
</svg>
