<svg width="42" height="42" viewBox="0 0 42 42" fill="none" xmlns="http://www.w3.org/2000/svg">
<path d="M37.3125 40.5208L24.4792 27.6875C23.3333 28.6042 22.0156 29.3299 20.526 29.8646C19.0365 30.3993 17.4514 30.6667 15.7708 30.6667C11.6076 30.6667 8.08458 29.2252 5.20167 26.3423C2.31722 23.4578 0.875 19.934 0.875 15.7708C0.875 11.6076 2.31722 8.08382 5.20167 5.19938C8.08458 2.31646 11.6076 0.875 15.7708 0.875C19.934 0.875 23.4578 2.31646 26.3423 5.19938C29.2252 8.08382 30.6667 11.6076 30.6667 15.7708C30.6667 17.4514 30.3993 19.0365 29.8646 20.526C29.3299 22.0156 28.6042 23.3333 27.6875 24.4792L40.5781 37.3698C40.9983 37.7899 41.2083 38.3056 41.2083 38.9167C41.2083 39.5278 40.9792 40.0625 40.5208 40.5208C40.1007 40.941 39.566 41.151 38.9167 41.151C38.2674 41.151 37.7326 40.941 37.3125 40.5208ZM15.7708 26.0833C18.6354 26.0833 21.0707 25.0811 23.0767 23.0767C25.0811 21.0707 26.0833 18.6354 26.0833 15.7708C26.0833 12.9062 25.0811 10.471 23.0767 8.465C21.0707 6.46056 18.6354 5.45833 15.7708 5.45833C12.9062 5.45833 10.471 6.46056 8.465 8.465C6.46056 10.471 5.45833 12.9062 5.45833 15.7708C5.45833 18.6354 6.46056 21.0707 8.465 23.0767C10.471 25.0811 12.9062 26.0833 15.7708 26.0833Z" fill="#707070" fill-opacity="0.5"/>
</svg>
