<svg width="20" height="14" viewBox="0 0 20 14" fill="none" xmlns="http://www.w3.org/2000/svg">
<path d="M11.625 13.5937C11.375 13.3437 11.255 13.0417 11.265 12.6875C11.2758 12.3333 11.4062 12.0312 11.6562 11.7812L15.1875 8.25H1.25C0.895833 8.25 0.59875 8.13 0.35875 7.89C0.119584 7.65083 0 7.35417 0 7C0 6.64583 0.119584 6.34875 0.35875 6.10875C0.59875 5.86958 0.895833 5.75 1.25 5.75H15.1875L11.625 2.1875C11.375 1.9375 11.25 1.64042 11.25 1.29625C11.25 0.952916 11.375 0.65625 11.625 0.40625C11.875 0.15625 12.1721 0.03125 12.5162 0.03125C12.8596 0.03125 13.1562 0.15625 13.4062 0.40625L19.125 6.125C19.25 6.25 19.3387 6.38542 19.3912 6.53125C19.4429 6.67708 19.4688 6.83333 19.4688 7C19.4688 7.16667 19.4429 7.32292 19.3912 7.46875C19.3387 7.61458 19.25 7.75 19.125 7.875L13.375 13.625C13.1458 13.8542 12.8596 13.9688 12.5162 13.9688C12.1721 13.9688 11.875 13.8437 11.625 13.5937Z" fill="url(#paint0_linear_542_26)"/>
<defs>
<linearGradient id="paint0_linear_542_26" x1="9.73438" y1="0.03125" x2="9.73438" y2="13.9688" gradientUnits="userSpaceOnUse">
<stop stop-color="#B79F71"/>
<stop offset="1" stop-color="#837252"/>
</linearGradient>
</defs>
</svg>
