<svg width="139" height="137" viewBox="0 0 139 137" fill="none" xmlns="http://www.w3.org/2000/svg">
<path d="M62.7154 92.8544C60.396 94.362 58.0186 94.478 55.5831 93.2023C53.1477 91.9266 51.93 89.8971 51.93 87.1138V49.8867C51.93 47.1034 53.1477 45.0739 55.5831 43.7982C58.0186 42.5225 60.396 42.6384 62.7154 44.1461L91.5925 62.5857C92.6363 63.2815 93.4179 64.1513 93.9375 65.195C94.4617 66.2388 94.7238 67.3405 94.7238 68.5002C94.7238 69.66 94.4617 70.7617 93.9375 71.8055C93.4179 72.8492 92.6363 73.719 91.5925 74.4148L62.7154 92.8544ZM54.3654 136.518C50.3064 135.59 46.3935 134.372 42.6267 132.865C38.8553 131.357 35.172 129.444 31.5769 127.124C29.7213 125.964 28.7077 124.341 28.5361 122.253C28.3598 120.166 29.0835 118.31 30.7071 116.687C31.8668 115.527 33.3443 114.861 35.1396 114.69C36.9394 114.513 38.5932 114.889 40.1008 115.817C42.6522 117.441 45.2918 118.802 48.0194 119.901C50.7425 121.006 53.5536 121.905 56.4529 122.601C58.0765 123.065 59.4404 123.965 60.5444 125.301C61.6438 126.632 62.1936 128.11 62.1936 129.734C62.1936 132.053 61.4119 133.878 59.8486 135.21C58.2807 136.546 56.4529 136.982 54.3654 136.518ZM20.7915 106.771C19.1679 108.395 17.3425 109.118 15.3153 108.942C13.2834 108.77 11.6877 107.815 10.5279 106.075C8.20849 102.712 6.26711 99.1471 4.7038 95.3803C3.13586 91.6089 1.888 87.6357 0.960222 83.4607C0.380361 81.3732 0.75611 79.5176 2.08747 77.894C3.42347 76.2704 5.25119 75.4586 7.57064 75.4586C9.19425 75.4586 10.7019 76.0384 12.0936 77.1982C13.4852 78.3579 14.413 79.7495 14.8769 81.3732C15.5727 84.3884 16.5005 87.2298 17.6602 89.8971C18.8199 92.5645 20.1536 95.1739 21.6613 97.7252C22.589 99.1169 22.9648 100.683 22.7885 102.422C22.6169 104.162 21.9512 105.611 20.7915 106.771ZM7.7446 61.5419C5.42515 61.5419 3.5696 60.7301 2.17793 59.1065C0.786263 57.4829 0.322374 55.6273 0.786263 53.5398C1.71404 49.4808 2.98973 45.5076 4.61335 41.6202C6.23696 37.7375 8.20849 34.1145 10.5279 30.7513C11.6877 29.0117 13.2834 28.0839 15.3153 27.968C17.3425 27.852 19.1679 28.6058 20.7915 30.2294C21.9512 31.3891 22.6169 32.8388 22.7885 34.5784C22.9648 36.318 22.589 37.8836 21.6613 39.2752C20.1536 41.7107 18.8199 44.2899 17.6602 47.0129C16.5005 49.7406 15.5727 52.612 14.8769 55.6273C14.413 57.2509 13.5154 58.6426 12.184 59.8023C10.848 60.962 9.36821 61.5419 7.7446 61.5419ZM83.7644 136.344C81.6769 136.808 79.8793 136.402 78.3717 135.126C76.864 133.851 76.1102 132.111 76.1102 129.908C76.1102 128.284 76.6622 126.776 77.7663 125.385C78.8657 123.993 80.2272 123.065 81.8508 122.601C94.2599 119.354 104.465 112.774 112.468 102.86C120.47 92.9425 124.471 81.4891 124.471 68.5002C124.471 55.5113 120.47 43.9721 112.468 33.8825C104.465 23.793 94.2599 17.2405 81.8508 14.2252C80.2272 13.7614 78.8657 12.8614 77.7663 11.5254C76.6622 10.1941 76.1102 8.71656 76.1102 7.09295C76.1102 4.88948 76.8942 3.11974 78.4621 1.78374C80.0254 0.452384 81.8508 0.0186473 83.9383 0.482536C99.8265 3.9617 112.873 12.0218 123.079 24.6627C133.285 37.3037 138.387 51.9162 138.387 68.5002C138.387 84.9683 133.257 99.4648 122.995 111.99C112.73 124.515 99.6526 132.633 83.7644 136.344ZM39.579 21.3575C38.0713 22.2853 36.4779 22.6332 34.7986 22.4013C33.1147 22.1693 31.6929 21.4735 30.5331 20.3138C28.9095 18.6902 28.1859 16.8346 28.3621 14.7471C28.5338 12.6596 29.5474 11.036 31.4029 9.87629C34.9981 7.55684 38.7092 5.6433 42.5363 4.13566C46.3633 2.62802 50.3064 1.41031 54.3654 0.482536C56.4529 0.0186473 58.2807 0.452384 59.8486 1.78374C61.4119 3.11974 62.1936 4.88948 62.1936 7.09295C62.1936 8.71656 61.6137 10.1941 60.454 11.5254C59.2942 12.8614 57.9026 13.7614 56.279 14.2252C53.3797 14.9211 50.5383 15.8767 47.755 17.0921C44.9717 18.3121 42.2463 19.7339 39.579 21.3575Z" fill="#6F6F6F" fill-opacity="0.7"/>
</svg>
