<svg xmlns="http://www.w3.org/2000/svg" enable-background="new 0 0 1024 1024" viewBox="0 0 1024 1024"><path d="M614.14,341.06c-1.21-1.56-1.63-3.56-1.15-5.47l6.1-24.05c0.72-2.83,3.25-4.8,6.17-4.8h35.21c2.91,0,5.45,1.97,6.16,4.8
		l6.1,24.05c0.49,1.91,0.07,3.91-1.15,5.47c-1.21,1.56-3.04,2.45-5.02,2.45h-47.4C617.18,343.51,615.35,342.62,614.14,341.06z"/><path d="M862.48 356.09c-1.57-1.53-3.73-2.38-5.86-2.33-24.43.4-48.9.79-73.39 1.18-14.25.23-28.5.46-42.75.68l28.24-51.57c.94-1.72.9-3.84-.11-5.53-1.01-1.69-2.86-2.74-4.83-2.71l-25.6.27c-1.74.01-3.39.85-4.42 2.24l-43.11 58.1c-23.57.38-47.14.75-70.64 1.14-51.97.84-105.7 1.7-157.37 14.2-15.44 3.73-27.59 7.29-38.87 11.45l-.04-.1c-13.54 4.95-27.32 10.92-42.3 18.2-.02.01-.03.01-.05.02-1.17.57-2.35 1.14-3.53 1.73-23.52 11.62-50.11 26.45-83.33 45.61l.1.17h-36.08c-23.74 0-47.01 8.18-65.53 23.02l-34.68 27.79h571.54v-85.98c2.03-4.74 4.86-7.67 10.32-10.86 3.93-2.3 8.51-4.17 13.6-5.58 14.95-4.09 30.84-6.16 46.21-8.16l57.89-7.52c4.03-.58 7.07-4.08 7.07-8.14v-11.45C864.96 359.77 864.06 357.63 862.48 356.09zM412.72 403.25v.01h-.09v-.01H412.72zM481.7 448.84H334.6c42.31-23.76 68.04-36.4 92.12-45.51l54.98.31V448.84zM543.82 446.33H501.7v-40.1c14.07.07 28.17.15 42.12.22V446.33zM652.75 448.84h-88.93v-44.79c13.55.08 26.85.15 39.73.22 21.53.12 42.15 4.78 49.2 10.87V448.84zM889.49 537.8c-2.13-12.83-13.12-22.15-26.14-22.15H95.61v15h10.79l31.08 48.41c3.4.7 6.82 1.39 10.26 2.07 3.46.69 6.95 1.36 10.45 2.01C342.4 617.71 577.58 615.05 787.56 609c.91-12.83 11.64-22.99 24.69-22.99h82.85c.82 0 1.62.05 2.42.13L889.49 537.8zM271.77 558.34h-52.03v-15h52.03V558.34zM358.11 558.34h-52.04v-15h52.04V558.34zM854.6 558.34h-34.5v-15h34.5V558.34z"/><path d="M893.87,645.42l-7.35,28.23c-1.29,5.03-5.85,8.67-11.08,8.81l-513.78,17.11c-2.6,0.07-5.2,0.11-7.78,0.11
		c-80.8,0-156.28-37.99-204.35-102.91c3.66,0.7,7.34,1.39,11.04,2.07c3.77,0.69,7.56,1.37,11.38,2.03
		c120.12,20.8,259.79,26.79,399.44,26.79c73.05,0,146.1-1.64,216.34-3.66c1.63,12.08,12.01,21.42,24.52,21.42H893.87z"/><path d="M933.89,588.76v53.92h-15v-19.46h-16.86v0.28c0,0.2-0.01,0.4-0.03,0.6c0,0.02-0.01,0.05-0.01,0.07c0,0.04,0,0.08-0.01,0.12
		c-0.01,0.14-0.03,0.28-0.06,0.42c0,0.01-0.01,0.02-0.01,0.03c-0.02,0.12-0.04,0.23-0.07,0.34c-0.02,0.12-0.05,0.24-0.09,0.36
		c-0.02,0.09-0.05,0.18-0.08,0.27c-0.04,0.13-0.09,0.26-0.14,0.38c-0.07,0.17-0.15,0.34-0.23,0.5c-0.07,0.14-0.14,0.27-0.22,0.4
		c-0.03,0.07-0.07,0.13-0.11,0.19c-0.03,0.05-0.07,0.1-0.1,0.15c-0.03,0.05-0.07,0.11-0.11,0.15c-0.11,0.16-0.22,0.32-0.35,0.47
		c-0.12,0.14-0.25,0.28-0.39,0.41c-0.04,0.05-0.09,0.1-0.14,0.14c-0.08,0.09-0.17,0.17-0.26,0.24l-0.01,0.01
		c-0.08,0.07-0.15,0.12-0.23,0.18c-0.02,0.02-0.04,0.03-0.06,0.05c-0.09,0.08-0.18,0.14-0.28,0.21c-0.03,0.02-0.06,0.04-0.1,0.07
		c-0.14,0.09-0.28,0.18-0.43,0.26c0,0-0.01,0-0.01,0.01c-0.09,0.05-0.18,0.1-0.28,0.14c-0.09,0.05-0.19,0.09-0.29,0.14
		c-0.22,0.1-0.44,0.19-0.67,0.26c-0.11,0.04-0.22,0.07-0.34,0.1c-0.11,0.04-0.23,0.07-0.35,0.09c-0.06,0.02-0.13,0.03-0.2,0.04
		c-0.18,0.04-0.37,0.06-0.56,0.08c-0.23,0.03-0.47,0.04-0.71,0.04h-82.85c-0.29,0-0.58-0.01-0.87-0.04c-0.04,0-0.09-0.01-0.13-0.01
		c-0.21-0.02-0.41-0.05-0.61-0.08c-0.1-0.02-0.2-0.04-0.29-0.06c-0.02,0-0.04-0.01-0.06-0.01c-0.22-0.05-0.44-0.1-0.65-0.16
		c-0.02,0-0.03-0.01-0.05-0.01c-0.23-0.06-0.46-0.14-0.69-0.22c-0.15-0.06-0.3-0.11-0.44-0.18c-0.12-0.04-0.24-0.1-0.36-0.16
		c-0.11-0.05-0.21-0.1-0.32-0.16c-0.14-0.06-0.27-0.14-0.41-0.22c-0.01,0-0.03-0.01-0.04-0.02c-0.01,0-0.01-0.01-0.02-0.01
		c-0.06-0.04-0.12-0.07-0.17-0.11c-0.07-0.03-0.14-0.07-0.2-0.12c-0.05-0.03-0.1-0.06-0.14-0.1c-0.11-0.07-0.22-0.14-0.32-0.22
		c-0.27-0.2-0.54-0.42-0.79-0.65c-0.12-0.1-0.23-0.21-0.34-0.32c-0.18-0.18-0.36-0.37-0.53-0.57c-0.13-0.16-0.26-0.32-0.39-0.49
		c-0.36-0.48-0.67-1-0.94-1.54c-0.08-0.17-0.16-0.34-0.23-0.51c-0.05-0.1-0.09-0.2-0.13-0.31c-0.07-0.19-0.14-0.38-0.2-0.58
		c-0.1-0.32-0.18-0.65-0.25-0.98v-0.01l-0.19-6.34v-5.45c0-5.39,4.37-9.77,9.76-9.77h82.85c0.24,0,0.48,0.01,0.71,0.04
		c0.2,0.02,0.41,0.05,0.61,0.09c0.09,0.02,0.17,0.04,0.25,0.05c0.01,0.01,0.02,0.01,0.03,0.01c0.09,0.02,0.17,0.04,0.25,0.07
		c0.1,0.02,0.19,0.05,0.28,0.08c0.17,0.05,0.33,0.11,0.5,0.17c0.03,0.02,0.07,0.03,0.1,0.04c0.12,0.06,0.24,0.11,0.35,0.17
		c0.01,0,0.01,0.01,0.02,0.01c0.09,0.04,0.17,0.09,0.25,0.13c0.09,0.05,0.17,0.11,0.26,0.16h0.01c0.19,0.11,0.38,0.24,0.55,0.38
		c0.04,0.02,0.07,0.05,0.1,0.07c0.01,0.01,0.03,0.02,0.04,0.03c0.11,0.09,0.21,0.18,0.31,0.27c0.01,0.01,0.01,0.01,0.02,0.02
		s0.01,0.01,0.02,0.02c0.11,0.09,0.22,0.19,0.31,0.3l0.04,0.04c0.1,0.09,0.19,0.19,0.28,0.3v0.01c0.09,0.1,0.18,0.21,0.26,0.33
		c0.04,0.04,0.07,0.08,0.1,0.12c0,0.01,0.01,0.02,0.01,0.03c0.1,0.13,0.19,0.27,0.27,0.41c0.03,0.04,0.05,0.07,0.07,0.1
		c0.01,0.02,0.02,0.03,0.03,0.05c0.01,0.01,0.01,0.02,0.02,0.03c0.05,0.11,0.11,0.22,0.16,0.33c0.01,0.01,0.02,0.02,0.02,0.03
		c0.02,0.05,0.05,0.09,0.06,0.14c0.05,0.1,0.1,0.2,0.14,0.3c0.06,0.14,0.11,0.28,0.15,0.43c0.03,0.09,0.06,0.17,0.08,0.26
		c0.01,0.02,0.01,0.05,0.02,0.07c0.05,0.17,0.09,0.33,0.12,0.5c0.04,0.2,0.07,0.4,0.09,0.61c0,0,0,0.01,0,0.02
		c0.03,0.23,0.04,0.47,0.04,0.71v0.28h16.86v-19.46H933.89z"/></svg>